<?xml version="1.0" encoding="UTF-8"?>
<svg version="1.1" viewBox="0 0 937 104" xmlns="http://www.w3.org/2000/svg">
<title>Block Analitica Logo</title>
<g fill="none" fill-rule="evenodd">
<g transform="translate(-194 -909)" fill="#fff">
<path d="m194 911.27h35.066c13.66 0 23.801 2.0244 30.425 6.0732 6.6235 4.0488 9.9352 10.351 9.9352 18.906 0 5.6271-1.4439 10.431-4.3316 14.411-2.8878 3.9802-6.6922 6.5421-11.413 7.6858v0.68623c6.2339 1.647 10.749 4.3919 13.545 8.2348 2.7961 3.8429 4.1941 8.8295 4.1941 14.96 0 9.1041-3.4263 16.275-10.279 21.513-6.8527 5.2383-16.192 7.8574-28.018 7.8574h-39.122v-100.33zm27.159 38.498h8.182c3.8962 0 6.91-0.8006 9.0414-2.4018 2.1314-1.6012 3.1972-3.9801 3.1972-7.1368 0-5.6271-4.2628-8.4407-12.789-8.4407h-7.6319v17.979zm0 19.832v21.067h9.5571c8.4799 0 12.72-3.5684 12.72-10.705 0-3.3397-1.1345-5.9016-3.4034-7.6858-2.269-1.7842-5.5578-2.6763-9.8665-2.6763h-9.007zm91.383 41.997h-25.662v-101.92h25.662v101.92zm88.798-37.272c0 12.14-3.2706 21.605-9.8118 28.396-6.5412 6.7906-15.697 10.186-27.466 10.186-11.289 0-20.269-3.4717-26.941-10.415-6.6725-6.9435-10.009-16.332-10.009-28.167 0-12.096 3.2706-21.496 9.8118-28.2 6.5412-6.7033 15.718-10.055 27.532-10.055 7.3069 0 13.761 1.5502 19.361 4.6508 5.6005 3.1005 9.9212 7.5439 12.962 13.33 3.0409 5.7862 4.5613 12.544 4.5613 20.274zm-48.173 0c0 6.3758 0.85319 11.234 2.5596 14.575 1.7064 3.3407 4.5723 5.0111 8.5976 5.0111 3.9816 0 6.7928-1.6703 8.4335-5.0111 1.6408-3.3407 2.4612-8.1989 2.4612-14.575 0-6.3321-0.83132-11.114-2.494-14.345-1.6627-3.2316-4.5066-4.8473-8.532-4.8473-3.9379 0-6.76 1.6048-8.4664 4.8145-1.7064 3.2097-2.5596 8.0024-2.5596 14.378zm96.674 38.582c-12.164 0-21.385-3.2752-27.663-9.8256-6.2787-6.5504-9.418-15.961-9.418-28.232 0-12.315 3.3909-21.856 10.173-28.625 6.7819-6.7688 16.429-10.153 28.943-10.153 8.6195 0 16.736 1.8778 24.349 5.6334l-7.5475 18.931c-3.1065-1.3538-5.9724-2.4346-8.5976-3.2425-2.6252-0.80789-5.3598-1.2118-8.2038-1.2118-4.1566 0-7.3725 1.6158-9.6477 4.8473s-3.4128 7.795-3.4128 13.69c0 11.878 4.3972 17.817 13.192 17.817 7.5257 0 14.745-2.1834 21.658-6.5504v20.372c-6.6069 4.367-14.548 6.5504-23.824 6.5504zm63.465-43.036c3.1065-4.9347 5.7536-8.7775 7.9413-11.529l16.67-20.961h28.615l-25.793 31.573 27.434 42.643h-29.337l-16.276-26.595-8.3351 6.3539v20.241h-25.793v-101.92h25.793v40.088c0 6.8561-0.48129 13.559-1.4439 20.11h0.52505zm136.68-58.058h4.2244l42.948 99.784h-5.2101l-14.785-34.432h-50.129l-14.785 34.432h-5.3509l43.089-99.784zm25.628 61.135-23.516-54.951-23.656 54.951h47.172zm93.781 38.649h-4.7876v-40.757c0-10.025-1.4316-17.357-4.2948-21.995-2.8632-4.6379-7.3926-6.9568-13.588-6.9568-3.2856 0-6.5712 0.609-9.8569 1.827-3.2856 1.218-6.3131 2.9045-9.0824 5.0595s-5.21 4.6847-7.3222 7.5892-3.6376 6.0901-4.5764 9.5568v45.676h-4.7876v-73.081h4.6468v18.27c1.502-2.9045 3.3795-5.5513 5.6325-7.9405s4.7876-4.427 7.6039-6.1135c2.8163-1.6865 5.7968-2.9982 8.9416-3.9351 3.1448-0.93694 6.36-1.4054 9.6456-1.4054 7.6978 0 13.26 2.7405 16.686 8.2216 3.4264 5.4811 5.1396 13.703 5.1396 24.665v41.319zm39.709 1.4054c-3.3795 0-6.5243-0.58558-9.4344-1.7568-2.9101-1.1712-5.4447-2.764-7.6039-4.7784-2.1591-2.0144-3.8489-4.3802-5.0692-7.0973-1.2204-2.7171-1.8306-5.6685-1.8306-8.8541 0-3.0919 0.75099-5.9261 2.253-8.5027 1.502-2.5766 3.5907-4.8018 6.2661-6.6757s5.8672-3.3261 9.5752-4.3568c3.7081-1.0306 7.7681-1.5459 12.18-1.5459 4.1305 0 8.2844 0.32792 12.462 0.98378 4.1775 0.65586 7.9559 1.6396 11.335 2.9514v-7.8703c0-7.3081-2.0887-13.141-6.2661-17.497s-9.7864-6.5351-16.827-6.5351c-3.5673 0-7.3692 0.77296-11.406 2.3189-4.0366 1.546-8.0732 3.7712-12.11 6.6757l-2.253-3.5135c9.3875-6.3712 18.071-9.5568 26.05-9.5568 8.5427 0 15.278 2.5297 20.207 7.5892 4.9285 5.0595 7.3926 11.993 7.3926 20.8v38.227c0 2.0613 0.84486 3.0919 2.5346 3.0919v4.4973c-0.28163 0.0937-0.53978 0.14055-0.77447 0.14055h-0.63366c-1.5959 0-2.9336-0.58558-4.0132-1.7568s-1.6193-2.6-1.6193-4.2865v-6.4649c-3.3795 4.4036-7.7446 7.8-13.096 10.189-5.3509 2.3892-11.124 3.5838-17.32 3.5838zm0.56325-4.0757c3.4734 0 6.9702-0.46846 10.491-1.4054s6.6886-2.2252 9.5048-3.8649c2.8163-1.6396 5.1162-3.5369 6.8998-5.6919 1.7836-2.155 2.6754-4.4504 2.6754-6.8865v-13.773c-7.3223-2.8108-15.114-4.2162-23.375-4.2162-3.8489 0-7.3692 0.42162-10.561 1.2649-3.1918 0.84325-5.9376 2.0144-8.2375 3.5135-2.2999 1.4991-4.0836 3.3027-5.3509 5.4108-1.2673 2.1081-1.901 4.4739-1.901 7.0973s0.51631 5.0594 1.5489 7.3081c1.0326 2.2487 2.4407 4.2162 4.2244 5.9027 1.7836 1.6865 3.8723 2.9982 6.2661 3.9351s4.9988 1.4054 7.8151 1.4054zm57.17-99.924h4.6468v90.086c0 2.7171 0.84486 4.8721 2.5346 6.4649s3.8958 2.3892 6.6182 2.3892c1.0326 0 2.2765-0.11712 3.7315-0.35135 1.4551-0.23424 2.7928-0.58558 4.0132-1.054l1.1265 3.9351c-1.4081 0.46847-3.1683 0.89009-5.2805 1.2649-2.1122 0.37477-3.9193 0.56216-5.4213 0.56216-3.5673 0-6.4539-1.1009-8.66-3.3027-2.2061-2.2018-3.3091-5.1766-3.3091-8.9243v-91.07zm34.077 102.59v-73.081h4.7876v73.081h-4.7876zm0-90.789v-11.805h4.7876v11.805h-4.7876zm58.155 87.416c-0.18775 0.0937-0.65712 0.35135-1.4081 0.77297-0.751 0.42163-1.7601 0.89009-3.0275 1.4054s-2.7224 0.96036-4.3652 1.3351c-1.6428 0.37477-3.4499 0.56216-5.4213 0.56216-3.6611 0-6.8294-1.054-9.5048-3.1622-2.6754-2.1081-4.0132-5.0829-4.0132-8.9243v-57.481h-10.42v-4.2162h10.42v-25.157h4.7876v25.157h17.32v4.2162h-17.32v56.778c0.18775 2.7171 1.2204 4.7784 3.0979 6.1838 1.8775 1.4054 4.0366 2.1081 6.4774 2.1081 1.502 0 2.9336-0.16396 4.2948-0.49189 1.3612-0.32793 2.5581-0.7027 3.5907-1.1243 1.0326-0.42162 1.8775-0.81981 2.5346-1.1946s1.0326-0.60901 1.1265-0.7027l1.8306 3.9351zm12.814 3.373v-73.081h4.7876v73.081h-4.7876zm0-90.789v-11.805h4.7876v11.805h-4.7876zm22.53 53.968c0-5.2469 0.8918-10.142 2.6754-14.686 1.7836-4.5442 4.2713-8.5027 7.463-11.876 3.1918-3.373 6.9702-6.0198 11.335-7.9405 4.3652-1.9207 9.0824-2.8811 14.152-2.8811 6.3835 0 12.063 1.4757 17.038 4.427 4.9754 2.9514 8.6834 7.0036 11.124 12.157l-4.6468 1.6865c-2.3469-4.3099-5.6325-7.6829-9.8569-10.119-4.2244-2.436-8.9181-3.6541-14.081-3.6541-4.2244 0-8.1906 0.84324-11.899 2.5297-3.7081 1.6865-6.9467 4.0054-9.716 6.9568-2.7693 2.9514-4.9284 6.4414-6.4774 10.47-1.5489 4.0288-2.3234 8.3387-2.3234 12.93s0.82139 8.9243 2.4642 13 3.8489 7.6594 6.6182 10.751c2.7693 3.0919 6.008 5.5279 9.716 7.3081 3.7081 1.7802 7.6273 2.6703 11.758 2.6703 2.7224 0 5.4213-0.39819 8.0967-1.1946s5.1396-1.8504 7.3926-3.1622c2.253-1.3117 4.2009-2.8342 5.8437-4.5676 1.6428-1.7333 2.7458-3.5838 3.3091-5.5514l4.7876 1.4054c-0.84488 2.5297-2.2295 4.8721-4.154 7.027s-4.1774 4.0054-6.759 5.5514-5.4213 2.764-8.5191 3.654c-3.0979 0.8901-6.2896 1.3351-9.5752 1.3351-4.9754 0-9.6222-1.0072-13.94-3.0216-4.3183-2.0144-8.0967-4.7549-11.335-8.2216-3.2387-3.4667-5.7968-7.5189-7.6743-12.157-1.8775-4.6379-2.8162-9.5802-2.8162-14.827zm99.132 38.227c-3.3795 0-6.5243-0.58558-9.4344-1.7568-2.9101-1.1712-5.4447-2.764-7.6039-4.7784-2.1591-2.0144-3.8489-4.3802-5.0692-7.0973-1.2204-2.7171-1.8306-5.6685-1.8306-8.8541 0-3.0919 0.75099-5.9261 2.253-8.5027 1.502-2.5766 3.5907-4.8018 6.2662-6.6757 2.6754-1.8739 5.8672-3.3261 9.5752-4.3568 3.7081-1.0306 7.7681-1.5459 12.18-1.5459 4.1305 0 8.2844 0.32792 12.462 0.98378s7.9559 1.6396 11.335 2.9514v-7.8703c0-7.3081-2.0887-13.141-6.2662-17.497-4.1774-4.3568-9.7864-6.5351-16.827-6.5351-3.5673 0-7.3692 0.77296-11.406 2.3189-4.0366 1.546-8.0732 3.7712-12.11 6.6757l-2.253-3.5135c9.3875-6.3712 18.071-9.5568 26.05-9.5568 8.5427 0 15.278 2.5297 20.207 7.5892 4.9285 5.0595 7.3926 11.993 7.3926 20.8v38.227c0 2.0613 0.84486 3.0919 2.5346 3.0919v4.4973c-0.28163 0.0937-0.53978 0.14055-0.77447 0.14055h-0.63365c-1.5959 0-2.9336-0.58558-4.0132-1.7568-1.0796-1.1712-1.6193-2.6-1.6193-4.2865v-6.4649c-3.3795 4.4036-7.7446 7.8-13.096 10.189-5.3509 2.3892-11.124 3.5838-17.32 3.5838zm0.56325-4.0757c3.4734 0 6.9702-0.46846 10.491-1.4054 3.5203-0.93694 6.6886-2.2252 9.5048-3.8649 2.8163-1.6396 5.1162-3.5369 6.8998-5.6919 1.7836-2.155 2.6754-4.4504 2.6754-6.8865v-13.773c-7.3223-2.8108-15.114-4.2162-23.375-4.2162-3.8489 0-7.3692 0.42162-10.561 1.2649-3.1918 0.84325-5.9376 2.0144-8.2375 3.5135-2.3 1.4991-4.0836 3.3027-5.3509 5.4108-1.2673 2.1081-1.901 4.4739-1.901 7.0973s0.5163 5.0594 1.5489 7.3081 2.4407 4.2162 4.2244 5.9027c1.7836 1.6865 3.8723 2.9982 6.2662 3.9351s4.9988 1.4054 7.8151 1.4054z"/>
</g>
</g>
</svg>
