<svg width="100%" height="100%" viewBox="0 0 100 100" fill="none" xmlns="http://www.w3.org/2000/svg">
<path d="M50 100C77.6142 100 100 77.6142 100 50C100 22.3858 77.6142 0 50 0C22.3858 0 0 22.3858 0 50C0 77.6142 22.3858 100 50 100Z" fill="#8150E6"></path>
<path d="M97.8624 63.5L62.6124 28.75L42.6124 25L30.8624 69.5L60.3624 98.75C78.6124 94.75 92.8624 81.25 97.8624 63.5Z" fill="#3C176B"></path>
<path d="M45.8625 65.5004V38.0004H52.8625C55.1125 38.0004 57.3625 38.2504 59.3625 39.0004C61.3625 39.5004 63.1125 40.5004 64.3625 41.7504C64.6125 42.0004 64.8625 42.0004 64.8625 42.2504C64.8625 38.5004 63.6125 34.7504 61.6125 31.5004C59.6125 31.0004 57.3625 30.5004 55.1125 30.5004H38.3625V65.5004C40.8625 65.5004 43.3626 65.7504 45.8625 65.5004Z" fill="#6B42BD"></path>
<path d="M75.1126 43.5002C73.8626 40.5002 72.3626 38.2502 70.3626 36.2502C68.3626 34.2502 66.1126 33.0002 63.3626 32.0002C62.8626 31.7502 62.3626 31.7502 61.8626 31.5002C63.8626 34.7502 65.1126 38.5002 65.1126 42.2502C66.3626 43.5002 67.1126 48.0002 67.6126 49.7502L46.1125 69.5002V65.5002C43.6125 65.7502 41.1125 65.5002 38.6125 65.5002V77.0002H54.6126C57.1126 77.0002 59.8626 76.5002 62.3626 75.5002C65.1126 74.5002 67.3626 73.2502 69.6126 71.2502C71.8626 69.2502 73.6126 67.0002 74.8626 64.0002C76.3626 61.0002 76.8626 57.5002 76.8626 53.5002C76.8626 49.5002 76.1126 46.2502 75.1126 43.5002Z" fill="#9B74EC"></path>
<path d="M43.8624 61.7504C46.1124 61.7504 48.3624 61.5004 50.6124 60.7504C52.6124 60.2504 54.6124 59.2504 56.1124 58.0004C57.6124 56.7504 58.8624 55.0004 59.8624 53.0004C60.8624 51.0004 61.1124 48.5004 61.1124 45.7504C61.1124 43.0004 60.6124 40.7504 59.8624 38.7504C59.1124 36.7504 57.8624 35.0004 56.6124 33.7504C55.1124 32.5004 53.6124 31.5004 51.6124 31.0004C49.6124 30.5004 47.6124 30.0004 45.1124 30.0004H38.1124V61.5004H43.8624V61.7504ZM30.6124 23.0004H47.3624C50.1124 23.0004 52.8624 23.5004 55.6124 24.5004C58.1124 25.5004 60.6124 27.0004 62.6124 28.7504C64.6124 30.7504 66.1124 33.0004 67.3624 36.0004C68.6124 39.0004 69.1124 42.2504 69.1124 46.0004C69.1124 50.0004 68.3624 53.5004 67.1124 56.5004C65.6124 59.5004 63.8624 61.7504 61.8624 63.7504C59.6124 65.7504 57.3624 67.0004 54.6124 68.0004C51.8624 69.0004 49.3624 69.5004 46.8624 69.5004H30.8624V23.0004H30.6124Z" fill="white"></path>
</svg>