<svg width="48" height="48" viewBox="0 0 48 48" fill="none" xmlns="http://www.w3.org/2000/svg">
<circle cx="24" cy="24.0011" r="24" fill="#F2F5FF"/>
<path d="M16.6683 22.6864L16.4603 23.0055C14.1144 26.6041 14.6383 31.317 17.7199 34.3364C19.5328 36.1127 21.9088 37.001 24.2848 37.0012C24.2848 37.0012 24.2848 37.0012 16.6683 22.6864Z" fill="#00A3FF"/>
<path opacity="0.6" d="M24.2826 27.037L16.666 22.6864C24.2826 37.0012 24.2826 37.0012 24.2826 37.0012C24.2826 33.8835 24.2826 30.3111 24.2826 27.037Z" fill="#00A3FF"/>
<path opacity="0.6" d="M31.9099 22.6864L32.1179 23.0055C34.4637 26.6041 33.9398 31.317 30.8582 34.3364C29.0454 36.1127 26.6694 37.001 24.2933 37.0012C24.2933 37.0012 24.2933 37.0012 31.9099 22.6864Z" fill="#00A3FF"/>
<path opacity="0.2" d="M24.2926 27.037L31.9092 22.6864C24.2926 37.0012 24.2926 37.0012 24.2926 37.0012C24.2926 33.8835 24.2926 30.3111 24.2926 27.037Z" fill="#00A3FF"/>
<path opacity="0.2" d="M24.2949 17.3177V24.8214L30.8557 21.072L24.2949 17.3177Z" fill="#00A3FF"/>
<path opacity="0.6" d="M24.2931 17.3177L17.7275 21.0719L24.2931 24.8214V17.3177Z" fill="#00A3FF"/>
<path d="M24.2931 11.0072L17.7275 21.0743L24.2931 17.3096V11.0072Z" fill="#00A3FF"/>
<path opacity="0.6" d="M24.2949 17.3084L30.8608 21.0732L24.2949 11.0011V17.3084Z" fill="#00A3FF"/>
</svg>
