<svg id="svg" version="1.1" xmlns="http://www.w3.org/2000/svg" xmlns:xlink="http://www.w3.org/1999/xlink" width="400" height="400" viewBox="0, 0, 400,400"><g id="svgg"><path id="path0" d="M129.211 37.645 C 117.689 38.706,111.131 41.316,98.026 50.060 C 73.438 66.466,52.510 89.559,39.052 115.134 L 37.332 118.402 38.023 118.575 C 43.171 119.867,61.444 115.958,77.895 110.045 C 125.020 93.106,156.814 67.149,153.376 48.421 C 151.985 40.841,142.146 36.454,129.211 37.645 M281.047 60.872 C 280.978 60.935,279.796 61.065,278.421 61.162 C 277.046 61.258,275.566 61.386,275.132 61.445 C 274.697 61.505,273.217 61.686,271.842 61.848 C 243.552 65.184,205.209 77.240,177.763 91.428 C 91.219 136.168,100.514 195.289,201.053 239.553 C 209.790 243.400,231.202 251.208,252.105 258.169 C 318.652 280.331,360.683 286.758,372.158 276.526 C 374.084 274.808,379.275 258.561,381.810 246.316 C 394.362 185.672,376.707 124.731,333.678 80.174 C 320.418 66.444,315.125 63.716,296.842 61.191 C 295.424 60.995,281.226 60.708,281.047 60.872 M25.406 143.039 C 24.600 144.969,21.575 154.519,20.571 158.304 C 1.021 232.000,27.754 308.619,89.079 354.658 C 104.899 366.535,121.969 375.253,127.024 374.037 C 129.691 373.395,131.534 325.666,129.374 313.173 C 124.211 283.308,113.635 260.704,83.811 215.789 C 70.069 195.094,65.162 188.638,47.102 167.500 C 37.284 156.008,31.806 149.423,28.553 145.205 C 25.874 141.732,25.935 141.774,25.406 143.039 M355.658 293.589 C 346.579 295.648,329.281 302.427,314.719 309.632 C 285.780 323.951,266.457 339.282,260.153 352.925 C 251.591 371.458,269.981 380.806,291.154 368.685 C 320.086 352.121,347.026 324.575,361.801 296.447 C 363.655 292.917,362.005 292.149,355.658 293.589 " stroke="none" fill="#5494f4" fill-rule="evenodd"></path><path id="path1" d="M203.158 26.058 C 184.082 27.133,165.616 31.136,148.308 37.950 L 144.906 39.289 146.968 40.326 C 151.600 42.657,153.810 46.487,153.549 51.729 C 152.810 66.555,134.802 83.729,104.002 98.984 C 97.656 102.127,97.097 102.458,97.252 102.982 C 99.255 109.735,106.033 118.875,114.356 126.044 C 118.252 129.401,125.391 134.697,125.659 134.429 C 125.709 134.379,126.537 133.161,127.498 131.724 C 139.534 113.722,162.732 97.110,195.132 83.295 C 219.408 72.943,249.791 64.448,271.842 61.848 C 273.217 61.686,274.697 61.505,275.132 61.445 C 281.725 60.541,294.195 60.733,301.436 61.848 C 316.839 64.222,323.957 68.888,340.365 87.368 L 341.650 88.816 340.128 85.921 C 334.738 75.674,329.878 70.392,316.842 60.617 C 284.481 36.350,243.200 23.801,203.158 26.058 M207.928 246.966 C 181.475 266.808,172.153 287.711,179.099 311.610 C 187.440 340.315,215.063 369.988,237.006 373.814 C 240.852 374.485,244.878 373.719,254.868 370.415 C 260.522 368.546,260.126 368.861,259.200 366.968 C 254.003 356.336,265.454 339.908,288.947 324.294 C 304.034 314.267,326.242 303.290,343.421 297.367 C 345.230 296.744,346.849 296.104,347.018 295.946 C 347.731 295.279,354.409 281.650,354.133 281.424 C 354.103 281.400,352.125 281.302,349.737 281.207 C 345.066 281.022,344.888 281.008,339.342 280.384 C 312.888 277.411,250.013 259.444,212.364 244.101 C 212.105 243.995,210.539 245.007,207.928 246.966 " stroke="none" fill="#0c3ca4" fill-rule="evenodd"></path><path id="path2" d="" stroke="none" fill="#307cf8" fill-rule="evenodd"></path><path id="path3" d="" stroke="none" fill="#307cf8" fill-rule="evenodd"></path><path id="path4" d="" stroke="none" fill="#307cf8" fill-rule="evenodd"></path></g></svg>